<svg width="100" height="100" viewBox="0 0 100 100" fill="none" xmlns="http://www.w3.org/2000/svg">
<g filter="url(#filter0_d_47_2)">
<circle cx="50" cy="50" r="31.5" stroke="#593333" stroke-width="5" shape-rendering="crispEdges"/>
</g>
<g filter="url(#filter1_d_47_2)">
<path d="M44.0909 59.3182V58.7273C44.1061 55.9848 44.3636 53.803 44.8636 52.1818C45.3788 50.5606 46.1061 49.2576 47.0455 48.2727C47.9848 47.2727 49.1288 46.3561 50.4773 45.5227C51.4015 44.947 52.2273 44.3182 52.9545 43.6364C53.697 42.9394 54.2803 42.1667 54.7045 41.3182C55.1288 40.4545 55.3409 39.4924 55.3409 38.4318C55.3409 37.2348 55.0606 36.197 54.5 35.3182C53.9394 34.4394 53.1818 33.7576 52.2273 33.2727C51.2879 32.7879 50.2348 32.5455 49.0682 32.5455C47.9924 32.5455 46.9697 32.7803 46 33.25C45.0455 33.7045 44.25 34.4015 43.6136 35.3409C42.9924 36.2652 42.6439 37.4394 42.5682 38.8636H34.4773C34.553 35.9848 35.25 33.5758 36.5682 31.6364C37.9015 29.697 39.6591 28.2424 41.8409 27.2727C44.0379 26.303 46.4621 25.8182 49.1136 25.8182C52.0076 25.8182 54.553 26.3258 56.75 27.3409C58.9621 28.3561 60.6818 29.803 61.9091 31.6818C63.1515 33.5455 63.7727 35.7576 63.7727 38.3182C63.7727 40.0455 63.4924 41.5909 62.9318 42.9545C62.3864 44.3182 61.6061 45.5303 60.5909 46.5909C59.5758 47.6515 58.3712 48.5985 56.9773 49.4318C55.75 50.1894 54.7424 50.9773 53.9545 51.7955C53.1818 52.6136 52.6061 53.5758 52.2273 54.6818C51.8636 55.7727 51.6742 57.1212 51.6591 58.7273V59.3182H44.0909ZM48.0455 73.5C46.6818 73.5 45.5076 73.0152 44.5227 72.0455C43.5379 71.0758 43.0455 69.8939 43.0455 68.5C43.0455 67.1364 43.5379 65.9697 44.5227 65C45.5076 64.0303 46.6818 63.5455 48.0455 63.5455C49.3939 63.5455 50.5606 64.0303 51.5455 65C52.5455 65.9697 53.0455 67.1364 53.0455 68.5C53.0455 69.4242 52.8106 70.2652 52.3409 71.0227C51.8864 71.7803 51.2803 72.3864 50.5227 72.8409C49.7803 73.2803 48.9545 73.5 48.0455 73.5Z" fill="#593333"/>
</g>
<defs>
<filter id="filter0_d_47_2" x="12" y="16" width="76" height="76" filterUnits="userSpaceOnUse" color-interpolation-filters="sRGB">
<feFlood flood-opacity="0" result="BackgroundImageFix"/>
<feColorMatrix in="SourceAlpha" type="matrix" values="0 0 0 0 0 0 0 0 0 0 0 0 0 0 0 0 0 0 127 0" result="hardAlpha"/>
<feOffset dy="4"/>
<feGaussianBlur stdDeviation="2"/>
<feComposite in2="hardAlpha" operator="out"/>
<feColorMatrix type="matrix" values="0 0 0 0 0 0 0 0 0 0 0 0 0 0 0 0 0 0 0.25 0"/>
<feBlend mode="normal" in2="BackgroundImageFix" result="effect1_dropShadow_47_2"/>
<feBlend mode="normal" in="SourceGraphic" in2="effect1_dropShadow_47_2" result="shape"/>
</filter>
<filter id="filter1_d_47_2" x="30.4771" y="25.8184" width="37.2959" height="55.6816" filterUnits="userSpaceOnUse" color-interpolation-filters="sRGB">
<feFlood flood-opacity="0" result="BackgroundImageFix"/>
<feColorMatrix in="SourceAlpha" type="matrix" values="0 0 0 0 0 0 0 0 0 0 0 0 0 0 0 0 0 0 127 0" result="hardAlpha"/>
<feOffset dy="4"/>
<feGaussianBlur stdDeviation="2"/>
<feComposite in2="hardAlpha" operator="out"/>
<feColorMatrix type="matrix" values="0 0 0 0 0 0 0 0 0 0 0 0 0 0 0 0 0 0 0.25 0"/>
<feBlend mode="normal" in2="BackgroundImageFix" result="effect1_dropShadow_47_2"/>
<feBlend mode="normal" in="SourceGraphic" in2="effect1_dropShadow_47_2" result="shape"/>
</filter>
</defs>
</svg>
